<?plantuml 1.2026.2?><svg xmlns="http://www.w3.org/2000/svg" xmlns:xlink="http://www.w3.org/1999/xlink" contentStyleType="text/css" data-diagram-type="EBNF" height="270px" preserveAspectRatio="none" style="width:895px;height:270px;background:#222222;" version="1.1" viewBox="0 0 895 270" width="895px" zoomAndPan="magnify"><defs/><g><rect fill="#222222" height="270" style="stroke:none;stroke-width:1;" width="895" x="0" y="0"/><text fill="#D9D3D0" font-family="Verdana" font-size="14" font-weight="bold" lengthAdjust="spacing" textLength="84.7998" x="5" y="19.0752">Repository</text><line style="stroke:#D9D3D0;stroke-width:1.5;" x1="35" x2="35" y1="45.522" y2="45.522"/><rect fill="none" height="27.0146" style="stroke:#D9D3D0;stroke-width:0.5;" width="39.1143" x="35" y="32.0146"/><text fill="#D9D3D0" font-family="Verdana" font-size="14" lengthAdjust="spacing" textLength="29.1143" x="40" y="51.0898">Scal</text><line style="stroke:#D9D3D0;stroke-width:1.5;" x1="74.1143" x2="94.1143" y1="45.522" y2="45.522"/><rect fill="none" height="27.0146" style="stroke:#D9D3D0;stroke-width:0.5;" width="15.0928" x="94.1143" y="32.0146"/><text fill="#D9D3D0" font-family="Verdana" font-size="14" lengthAdjust="spacing" textLength="5.0928" x="99.1143" y="51.0898">.</text><line style="stroke:#D9D3D0;stroke-width:1.5;" x1="109.207" x2="129.207" y1="45.522" y2="45.522"/><rect fill="#003153" height="27.0146" rx="5" ry="5" style="stroke:#D9D3D0;stroke-width:1.5;" width="79.3643" x="162.9968" y="32.0146"/><text fill="#D9D3D0" font-family="Verdana" font-size="14" lengthAdjust="spacing" textLength="69.3643" x="167.9968" y="51.0898">Capability</text><path d="M129.207,79.0293 L129.207,104.8286 A0,0 0 0 0 129.207,104.8286 L276.1509,104.8286 A0,0 0 0 0 276.1509,104.8286 L276.1509,89.0293 L266.1509,79.0293 L206.679,79.0293 L202.679,59.0293 L198.679,79.0293 L129.207,79.0293 A0,0 0 0 0 129.207,79.0293" fill="#003153" style="stroke:#D9D3D0;stroke-width:1;"/><path d="M266.1509,79.0293 L266.1509,89.0293 L276.1509,89.0293 L266.1509,79.0293" fill="#003153" style="stroke:#D9D3D0;stroke-width:1;"/><text fill="#D9D3D0" font-family="Verdana" font-size="13" lengthAdjust="spacing" textLength="116.8032" x="139.7773" y="97.0991">Gerund verb form</text><line style="stroke:#D9D3D0;stroke-width:1.5;" x1="129.207" x2="162.9968" y1="45.522" y2="45.522"/><path d="M144.1019,45.522 L144.1019,42.522 L150.1019,45.522 L144.1019,48.522 L144.1019,45.522" fill="#D9D3D0"/><line style="stroke:#D9D3D0;stroke-width:1.5;" x1="242.3611" x2="276.1509" y1="45.522" y2="45.522"/><path d="M257.256,45.522 L257.256,42.522 L263.256,45.522 L257.256,48.522 L257.256,45.522" fill="#D9D3D0"/><line style="stroke:#D9D3D0;stroke-width:1.5;" x1="276.1509" x2="296.1509" y1="45.522" y2="45.522"/><line style="stroke:#D9D3D0;stroke-width:1.5;" x1="296.1509" x2="855.3096" y1="45.522" y2="45.522"/><path d="M517.8144,45.522 L517.8144,42.522 L523.8144,45.522 L517.8144,48.522 L517.8144,45.522" fill="#D9D3D0"/><path d="M296.1509,45.522 C305.1509,45.522 308.1509,48.2756 308.1509,57.2756 C308.1509,66.2756 311.1509,69.0293 320.1509,69.0293" fill="none" style="stroke:#D9D3D0;stroke-width:1.5;"/><path d="M831.3096,69.0293 C840.3096,69.0293 843.3096,66.2756 843.3096,57.2756 C843.3096,48.2756 846.3096,45.522 855.3096,45.522" fill="none" style="stroke:#D9D3D0;stroke-width:1.5;"/><line style="stroke:#D9D3D0;stroke-width:1.5;" x1="320.1509" x2="320.1509" y1="69.0293" y2="69.0293"/><rect fill="none" height="27.0146" style="stroke:#D9D3D0;stroke-width:0.5;" width="15.0928" x="320.1509" y="55.522"/><text fill="#D9D3D0" font-family="Verdana" font-size="14" lengthAdjust="spacing" textLength="5.0928" x="325.1509" y="74.5972">.</text><line style="stroke:#D9D3D0;stroke-width:1.5;" x1="335.2437" x2="355.2437" y1="69.0293" y2="69.0293"/><rect fill="#003153" height="27.0146" rx="5" ry="5" style="stroke:#D9D3D0;stroke-width:1.5;" width="70.416" x="395.9541" y="55.522"/><text fill="#D9D3D0" font-family="Verdana" font-size="14" lengthAdjust="spacing" textLength="60.416" x="400.9541" y="74.5972">Subjects</text><path d="M379.2437,102.5366 L379.2437,128.3359 A0,0 0 0 0 379.2437,128.3359 L483.0806,128.3359 A0,0 0 0 0 483.0806,128.3359 L483.0806,112.5366 L473.0806,102.5366 L435.1621,102.5366 L431.1621,82.5366 L427.1621,102.5366 L379.2437,102.5366 A0,0 0 0 0 379.2437,102.5366" fill="#003153" style="stroke:#D9D3D0;stroke-width:1;"/><path d="M473.0806,102.5366 L473.0806,112.5366 L483.0806,112.5366 L473.0806,102.5366" fill="#003153" style="stroke:#D9D3D0;stroke-width:1;"/><text fill="#D9D3D0" font-family="Verdana" font-size="13" lengthAdjust="spacing" textLength="73.6963" x="389.814" y="120.6064">Plural noun</text><line style="stroke:#D9D3D0;stroke-width:1.5;" x1="379.2437" x2="395.9541" y1="69.0293" y2="69.0293"/><line style="stroke:#D9D3D0;stroke-width:1.5;" x1="466.3701" x2="483.0806" y1="69.0293" y2="69.0293"/><line style="stroke:#D9D3D0;stroke-width:1.5;" x1="355.2437" x2="379.2437" y1="69.0293" y2="69.0293"/><line style="stroke:#D9D3D0;stroke-width:1.5;" x1="483.0806" x2="543.8779" y1="69.0293" y2="69.0293"/><rect fill="#003153" height="27.0146" rx="5" ry="5" style="stroke:#D9D3D0;stroke-width:1.5;" width="52.4238" x="423.3489" y="138.3359"/><text fill="#D9D3D0" font-family="Verdana" font-size="14" lengthAdjust="spacing" textLength="42.4238" x="428.3489" y="157.4111">Scope</text><path d="M379.2437,185.3506 L379.2437,211.1499 A0,0 0 0 0 379.2437,211.1499 L519.8779,211.1499 A0,0 0 0 0 519.8779,211.1499 L519.8779,195.3506 L509.8779,185.3506 L453.5608,185.3506 L449.5608,165.3506 L445.5608,185.3506 L379.2437,185.3506 A0,0 0 0 0 379.2437,185.3506" fill="#003153" style="stroke:#D9D3D0;stroke-width:1;"/><path d="M509.8779,185.3506 L509.8779,195.3506 L519.8779,195.3506 L509.8779,185.3506" fill="#003153" style="stroke:#D9D3D0;stroke-width:1;"/><text fill="#D9D3D0" font-family="Verdana" font-size="13" lengthAdjust="spacing" textLength="110.4937" x="389.814" y="203.4204">E.g. Meteorology</text><line style="stroke:#D9D3D0;stroke-width:1.5;" x1="379.2437" x2="423.3489" y1="151.8433" y2="151.8433"/><path d="M399.2963,151.8433 L399.2963,148.8433 L405.2963,151.8433 L399.2963,154.8433 L399.2963,151.8433" fill="#D9D3D0"/><line style="stroke:#D9D3D0;stroke-width:1.5;" x1="475.7727" x2="519.8779" y1="151.8433" y2="151.8433"/><path d="M495.8253,151.8433 L495.8253,148.8433 L501.8253,151.8433 L495.8253,154.8433 L495.8253,151.8433" fill="#D9D3D0"/><path d="M367.2437,139.8433 C367.2437,148.8433 370.2437,151.8433 379.2437,151.8433" fill="none" style="stroke:#D9D3D0;stroke-width:1.5;"/><line style="stroke:#D9D3D0;stroke-width:1.5;" x1="519.8779" x2="519.8779" y1="151.8433" y2="151.8433"/><path d="M531.8779,139.8433 C531.8779,148.8433 528.8779,151.8433 519.8779,151.8433" fill="none" style="stroke:#D9D3D0;stroke-width:1.5;"/><rect fill="#003153" height="27.0146" rx="5" ry="5" style="stroke:#D9D3D0;stroke-width:1.5;" width="89.8232" x="379.2437" y="221.1499"/><text fill="#D9D3D0" font-family="Verdana" font-size="14" lengthAdjust="spacing" textLength="79.8232" x="384.2437" y="240.2251">Technology</text><line style="stroke:#D9D3D0;stroke-width:1.5;" x1="469.0669" x2="519.8779" y1="234.6572" y2="234.6572"/><path d="M492.4724,234.6572 L492.4724,231.6572 L498.4724,234.6572 L492.4724,237.6572 L492.4724,234.6572" fill="#D9D3D0"/><path d="M367.2437,222.6572 C367.2437,231.6572 370.2437,234.6572 379.2437,234.6572" fill="none" style="stroke:#D9D3D0;stroke-width:1.5;"/><line style="stroke:#D9D3D0;stroke-width:1.5;" x1="367.2437" x2="367.2437" y1="81.0293" y2="222.6572"/><path d="M355.2437,69.0293 C364.2437,69.0293 367.2437,72.0293 367.2437,81.0293" fill="none" style="stroke:#D9D3D0;stroke-width:1.5;"/><path d="M531.8779,222.6572 C531.8779,231.6572 528.8779,234.6572 519.8779,234.6572" fill="none" style="stroke:#D9D3D0;stroke-width:1.5;"/><line style="stroke:#D9D3D0;stroke-width:1.5;" x1="531.8779" x2="531.8779" y1="81.0293" y2="222.6572"/><path d="M531.8779,81.0293 C531.8779,72.0293 534.8779,69.0293 543.8779,69.0293" fill="none" style="stroke:#D9D3D0;stroke-width:1.5;"/><line style="stroke:#D9D3D0;stroke-width:1.5;" x1="543.8779" x2="563.8779" y1="69.0293" y2="69.0293"/><line style="stroke:#D9D3D0;stroke-width:1.5;" x1="563.8779" x2="831.3096" y1="69.0293" y2="69.0293"/><path d="M668.8506,69.0293 L668.8506,66.0293 L674.8506,69.0293 L668.8506,72.0293 L668.8506,69.0293" fill="#D9D3D0"/><path d="M563.8779,69.0293 C572.8779,69.0293 575.8779,77.783 575.8779,86.783 C575.8779,95.783 578.8779,104.5366 587.8779,104.5366" fill="none" style="stroke:#D9D3D0;stroke-width:1.5;"/><path d="M807.3096,104.5366 C816.3096,104.5366 819.3096,95.783 819.3096,86.783 C819.3096,77.783 822.3096,69.0293 831.3096,69.0293" fill="none" style="stroke:#D9D3D0;stroke-width:1.5;"/><path d="M595.8779,96.5366 C595.8779,102.5366 597.8779,104.5366 603.8779,104.5366" fill="none" style="stroke:#D9D3D0;stroke-width:1.5;"/><line style="stroke:#D9D3D0;stroke-width:1.5;" x1="595.8779" x2="595.8779" y1="92.0293" y2="96.5366"/><path d="M595.8779,92.0293 C595.8779,86.0293 597.8779,84.0293 603.8779,84.0293" fill="none" style="stroke:#D9D3D0;stroke-width:1.5;"/><line style="stroke:#D9D3D0;stroke-width:1.5;" x1="602.8779" x2="792.3096" y1="84.0293" y2="84.0293"/><path d="M714.5369,84.0293 L714.5369,81.0293 L708.5369,84.0293 L714.5369,87.0293 L714.5369,84.0293" fill="#D9D3D0"/><path d="M799.3096,96.5366 C799.3096,102.5366 797.3096,104.5366 791.3096,104.5366" fill="none" style="stroke:#D9D3D0;stroke-width:1.5;"/><line style="stroke:#D9D3D0;stroke-width:1.5;" x1="799.3096" x2="799.3096" y1="92.0293" y2="96.5366"/><path d="M791.3096,84.0293 C797.3096,84.0293 799.3096,86.0293 799.3096,92.0293" fill="none" style="stroke:#D9D3D0;stroke-width:1.5;"/><line style="stroke:#D9D3D0;stroke-width:1.5;" x1="587.8779" x2="602.8779" y1="104.5366" y2="104.5366"/><line style="stroke:#D9D3D0;stroke-width:1.5;" x1="792.3096" x2="807.3096" y1="104.5366" y2="104.5366"/><line style="stroke:#D9D3D0;stroke-width:1.5;" x1="602.8779" x2="602.8779" y1="104.5366" y2="104.5366"/><rect fill="none" height="27.0146" style="stroke:#D9D3D0;stroke-width:0.5;" width="15.0928" x="602.8779" y="91.0293"/><text fill="#D9D3D0" font-family="Verdana" font-size="14" lengthAdjust="spacing" textLength="5.0928" x="607.8779" y="110.1045">.</text><line style="stroke:#D9D3D0;stroke-width:1.5;" x1="617.9707" x2="637.9707" y1="104.5366" y2="104.5366"/><rect fill="#003153" height="27.0146" rx="5" ry="5" style="stroke:#D9D3D0;stroke-width:1.5;" width="72.918" x="661.9707" y="91.0293"/><text fill="#D9D3D0" font-family="Verdana" font-size="14" lengthAdjust="spacing" textLength="62.918" x="666.9707" y="110.1045">Variation</text><line style="stroke:#D9D3D0;stroke-width:1.5;" x1="637.9707" x2="661.9707" y1="104.5366" y2="104.5366"/><line style="stroke:#D9D3D0;stroke-width:1.5;" x1="734.8887" x2="792.3096" y1="104.5366" y2="104.5366"/><rect fill="#003153" height="27.0146" rx="5" ry="5" style="stroke:#D9D3D0;stroke-width:1.5;" width="106.3389" x="661.9707" y="128.0439"/><text fill="#D9D3D0" font-family="Verdana" font-size="14" lengthAdjust="spacing" textLength="96.3389" x="666.9707" y="147.1191">Specialization</text><path d="M649.9707,129.5513 C649.9707,138.5513 652.9707,141.5513 661.9707,141.5513" fill="none" style="stroke:#D9D3D0;stroke-width:1.5;"/><line style="stroke:#D9D3D0;stroke-width:1.5;" x1="768.3096" x2="768.3096" y1="141.5513" y2="141.5513"/><path d="M780.3096,129.5513 C780.3096,138.5513 777.3096,141.5513 768.3096,141.5513" fill="none" style="stroke:#D9D3D0;stroke-width:1.5;"/><rect fill="#003153" height="27.0146" rx="5" ry="5" style="stroke:#D9D3D0;stroke-width:1.5;" width="89.8232" x="661.9707" y="165.0586"/><text fill="#D9D3D0" font-family="Verdana" font-size="14" lengthAdjust="spacing" textLength="79.8232" x="666.9707" y="184.1338">Technology</text><line style="stroke:#D9D3D0;stroke-width:1.5;" x1="751.7939" x2="768.3096" y1="178.5659" y2="178.5659"/><path d="M649.9707,166.5659 C649.9707,175.5659 652.9707,178.5659 661.9707,178.5659" fill="none" style="stroke:#D9D3D0;stroke-width:1.5;"/><line style="stroke:#D9D3D0;stroke-width:1.5;" x1="649.9707" x2="649.9707" y1="116.5366" y2="166.5659"/><path d="M637.9707,104.5366 C646.9707,104.5366 649.9707,107.5366 649.9707,116.5366" fill="none" style="stroke:#D9D3D0;stroke-width:1.5;"/><path d="M780.3096,166.5659 C780.3096,175.5659 777.3096,178.5659 768.3096,178.5659" fill="none" style="stroke:#D9D3D0;stroke-width:1.5;"/><line style="stroke:#D9D3D0;stroke-width:1.5;" x1="780.3096" x2="780.3096" y1="116.5366" y2="166.5659"/><path d="M780.3096,116.5366 C780.3096,107.5366 783.3096,104.5366 792.3096,104.5366" fill="none" style="stroke:#D9D3D0;stroke-width:1.5;"/><ellipse cx="9" cy="45.522" fill="none" rx="4" ry="4" style="stroke:#D9D3D0;stroke-width:2;"/><ellipse cx="885.3096" cy="45.522" fill="#D9D3D0" rx="4" ry="4" style="stroke:#D9D3D0;stroke-width:1;"/><line style="stroke:#D9D3D0;stroke-width:1.5;" x1="13" x2="35" y1="45.522" y2="45.522"/><line style="stroke:#D9D3D0;stroke-width:1.5;" x1="855.3096" x2="881.3096" y1="45.522" y2="45.522"/><path d="M866.3096,45.522 L866.3096,42.522 L872.3096,45.522 L866.3096,48.522 L866.3096,45.522" fill="#D9D3D0"/><?plantuml-src xLRVJzim47xFN-6n5q2ewmyn2OrDq1G64cM8CFOmxU5gNnklhfqv3b06__jibpJDqWA5xcsM4YNdxxwSlpkVivSQq0PxiX-yCJ6EaFH4XedcqWJHaCipq30YRQ33WLQPPA4IIfEtpMOpECT4fTmeFIOVoLf4GQnjaRMQlOMGG8yBRiPaVPDyHcqToHNg7kahFIAR6ri1iUExlxlXlAOlwzCdDwAiznEfIHtJcSWq229j89Q4t9M1L2NeK0UrGOrqqQ3IDjZ1k0gzG1fBFpSrRnJV_rt2baBpuP5Bq1mCLvBSaIX1oa7msznGS9EDgT-zV_hn8TX3oO9Whn3TZztKZ0L-iY2jb7a8eA9vlTvgRBVytA6Ivi7QsUcqElMfzHHi2YzHCv3WZKVZ1FK9byCgtbfnllKYvdGeCKr9mzkwe0TSakrWiXIcQ3P2cKTA8V6BpuKhCqnO9mhqxV9GFmCO8x1d0Gqt0gSufq34Rv7OydpSqrrIiTor2pTyb8s-SMPYqghNFMBttKDUWjJkXCJlX7sjrVM94e8dAYcBLu0MfQv0TB0FcJ2LZ5KGNILLcW15DiM6AjCSzGpsXFTHs8L6HeD1MtdMHmdEPY1s7njEUGBId05ZN0v8OpRa27zbA2awAgTPMscRW4KBZ69WwjgHz46aE3FpDSKs6eYSSCJe34lYKSElN5TmeY-kxpRelyjoNZZpjq55qllPnBZFWPu4KFKkGsyyAbThkpGRSaq5iZ2sRpGlwKV3oRD6o3amdgLafqmemDRd4xgiHWJ_gNrZDEzb1f-EV257P1UEojW6ypAImw8RBErxL3I8vNrTIxJxPUZT5vV0CLNs_AD36E0SvE9CLJWqlmBpMWwhbQqqzZgMh2SuVJ75gNfflNpnX_YalkTKyNsfKnMAhwZY8vFBlzpcAdFanRw_CgPmPKm7AsCwNXdJwIkPx54IGeeJmeibkyp_VzT_zE_Qg3NhpVUrvXy0?></g></svg>